# xmcd
# 
# Track frame offsets:
#     150
#     18433
#     35964
#     53086
#     70930
#     92106
#     114800
#     136109
#     156618
#     173050
#     192774
#     218643
# 
# Disc length: 2921
# 
# Revision: 2
# Processed by: cddbd v1.5.2PL0 Copyright (c) Steve Scherf et al.
# Submitted via: fre:ac v1.0.27
# 
DISCID=a20b670c
DTITLE=Paul Colman - Let It Go
DYEAR=2005
DGENRE=????
TTITLE0=Gloria
TTITLE1=The One Thing
TTITLE2=Holding Onto You
TTITLE3=Always
TTITLE4=Sweet River
TTITLE5=I'm Coming Home
TTITLE6=Last Night in America
TTITLE7=I Owe it All
TTITLE8=Nothing Without You
TTITLE9=Symphony of the Redeemed
TTITLE10=My Brother Jack
TTITLE11=Data Track
EXTD=
EXTT0=
EXTT1=
EXTT2=
EXTT3=
EXTT4=
EXTT5=
EXTT6=
EXTT7=
EXTT8=
EXTT9=
EXTT10=
EXTT11=
PLAYORDER=
